<?xml version="1.0" encoding="UTF-8" standalone="no"?>
<svg
   version="1.1"
   id="svg1"
   width="196.56543"
   height="134.33867"
   viewBox="0 0 196.56543 134.33867"
   xmlns="http://www.w3.org/2000/svg">
  <style>
    path { fill: #19183b; }
    @media (prefers-color-scheme: dark) {
      path { fill: #ffffff; }
    }
  </style>
  <g transform="translate(-3044.0744,-111.7896)">
    <path
       d="m 0,0 c -37.625,0 -68.237,20.14 -68.237,44.902 0,24.758 30.612,44.9 68.237,44.9 37.625,0 68.237,-20.142 68.237,-44.9 C 68.237,20.14 37.625,0 0,0 m 0,95.278 c -40.645,0 -73.712,-22.601 -73.712,-50.376 0,-27.778 33.067,-50.378 73.712,-50.378 40.644,0 73.712,22.6 73.712,50.378 0,27.775 -33.068,50.376 -73.712,50.376"
       transform="matrix(1.3333333,0,0,-1.3333333,3142.3572,238.82693)" />
    <path
       d="m 0,0 h -10.524 l -18.514,-19.872 19.947,-20.64 H 1.848 l -19.96,21.176 z"
       transform="matrix(1.3333333,0,0,-1.3333333,3132.6512,151.95107)" />
    <path
       d="m 0,0 -14.722,18.848 h -12.122 l 3.907,-5.155 v -35.357 h 8.215 V 6.176 L 0,-12.074 14.723,6.176 v -27.84 h 8.215 v 40.512 h -8.215 z"
       transform="matrix(1.3333333,0,0,-1.3333333,3175.4924,177.0816)" />
    <path
       d="M 0,0 V -35.358 H 8.217 V 5.155 H -3.908 Z"
       transform="matrix(1.3333333,0,0,-1.3333333,3081.6169,158.82387)" />
    <path
       d="m 0,0 h 0.98 c 0.168,0 0.324,-0.053 0.467,-0.159 0.142,-0.105 0.214,-0.28 0.214,-0.527 0,-0.239 -0.072,-0.423 -0.214,-0.552 C 1.304,-1.366 1.144,-1.43 0.966,-1.43 H 0 Z m 0,-1.963 h 1.07 l 0.729,-1.399 h 0.76 l -0.83,1.55 c 0.003,0.002 0.006,0.001 0.009,0.003 0.192,0.102 0.349,0.249 0.475,0.44 C 2.338,-1.177 2.4,-0.95 2.4,-0.686 2.4,-0.422 2.339,-0.2 2.218,-0.018 2.097,0.162 1.943,0.3 1.76,0.393 1.575,0.487 1.383,0.533 1.187,0.533 H -0.681 V -3.362 H 0 Z"
       transform="matrix(1.3333333,0,0,-1.3333333,3223.2137,122.28)" />
    <path
       d="M 0,0 C 0.314,0.529 0.737,0.95 1.265,1.265 1.793,1.581 2.38,1.736 3.024,1.736 3.668,1.736 4.255,1.581 4.784,1.265 5.312,0.95 5.734,0.529 6.049,0 6.364,-0.528 6.521,-1.115 6.521,-1.761 6.521,-2.404 6.364,-2.991 6.049,-3.518 5.734,-4.047 5.312,-4.468 4.784,-4.783 4.255,-5.099 3.668,-5.257 3.024,-5.257 2.38,-5.257 1.793,-5.099 1.265,-4.783 0.737,-4.468 0.314,-4.047 0,-3.518 c -0.315,0.527 -0.474,1.114 -0.474,1.757 0,0.646 0.159,1.233 0.474,1.761 m 0.037,-4.746 c 0.388,-0.387 0.836,-0.69 1.346,-0.908 0.511,-0.218 1.058,-0.327 1.641,-0.327 0.584,0 1.131,0.109 1.641,0.327 0.51,0.218 0.958,0.521 1.347,0.908 0.386,0.388 0.689,0.836 0.907,1.345 0.217,0.512 0.327,1.057 0.327,1.64 0,0.585 -0.11,1.132 -0.327,1.643 C 6.701,0.391 6.398,0.84 6.012,1.228 5.623,1.615 5.175,1.917 4.665,2.135 4.155,2.352 3.608,2.462 3.024,2.462 2.441,2.462 1.894,2.352 1.383,2.135 0.873,1.917 0.425,1.615 0.037,1.228 -0.349,0.84 -0.652,0.391 -0.87,-0.118 c -0.217,-0.511 -0.327,-1.058 -0.327,-1.643 0,-0.583 0.11,-1.128 0.327,-1.64 0.218,-0.509 0.521,-0.957 0.907,-1.345"
       transform="matrix(1.3333333,0,0,-1.3333333,3220.1799,121.88267)" />
  </g>
</svg>
